%
M48
M72
T01C0.03150
T02C0.04000
%
T01
X10993Y38424
X10993Y46298
X10993Y54172
X10993Y62046
X10993Y69920
X10993Y77794
X10993Y85668
X10993Y93542
X10993Y101416
X10993Y109290
X97607Y109290
X97607Y101416
X97607Y93542
X97607Y85668
X97607Y77794
X97607Y69920
X97607Y62046
X97607Y54172
X97607Y46298
X97607Y38424
T02
X109300Y34300
X109300Y44300
X109300Y54300
X109300Y64300
X109300Y74300
X109300Y84300
X109300Y94300
X109300Y104300
X109300Y114300
X109300Y124300
X119300Y124300
X119300Y114300
X119300Y104300
X119300Y94300
X119300Y84300
X119300Y74300
X119300Y64300
X119300Y54300
X119300Y44300
X119300Y34300
M30
