%
M48
M72
T01C0.03150
T02C0.04000
%
T01
X8493Y35924
X8493Y43798
X8493Y51672
X8493Y59546
X8493Y67420
X8493Y75294
X8493Y83168
X8493Y91042
X8493Y98916
X8493Y106790
X95107Y106790
X95107Y98916
X95107Y91042
X95107Y83168
X95107Y75294
X95107Y67420
X95107Y59546
X95107Y51672
X95107Y43798
X95107Y35924
T02
X106800Y31800
X106800Y41800
X106800Y51800
X106800Y61800
X106800Y71800
X106800Y81800
X106800Y91800
X106800Y101800
X106800Y111800
X106800Y121800
X116800Y121800
X116800Y111800
X116800Y101800
X116800Y91800
X116800Y81800
X116800Y71800
X116800Y61800
X116800Y51800
X116800Y41800
X116800Y31800
M30
