G75*
%MOIN*%
%OFA0B0*%
%FSLAX25Y25*%
%IPPOS*%
%LPD*%
%AMOC8*
5,1,8,0,0,1.08239X$1,22.5*
%
%ADD10C,0.01600*%
%ADD11C,0.04800*%
%ADD12OC8,0.04800*%
%ADD13C,0.06500*%
%ADD14C,0.04356*%
%ADD15C,0.06299*%
%ADD16C,0.06000*%
%ADD17R,0.04356X0.04356*%
D10*
X0001800Y0009250D02*
X0001800Y0084250D01*
X0160550Y0084250D01*
X0160550Y0009250D01*
X0001800Y0009250D01*
X0034300Y0026750D02*
X0034300Y0029250D01*
X0035550Y0029250D01*
X0035550Y0040500D01*
X0035550Y0050500D01*
X0048050Y0050500D01*
X0048050Y0059959D01*
X0055924Y0059959D02*
X0055924Y0050874D01*
X0055550Y0049250D01*
X0064300Y0049250D02*
X0064300Y0059959D01*
X0063798Y0059959D01*
X0070550Y0063000D02*
X0079300Y0063000D01*
X0079300Y0058906D01*
X0081456Y0055500D01*
X0085550Y0061750D02*
X0095550Y0070500D01*
X0100550Y0070500D02*
X0105550Y0070500D01*
X0100550Y0070500D02*
X0100550Y0033000D01*
X0040550Y0033000D01*
X0040550Y0027665D01*
X0041613Y0027665D01*
X0030550Y0033000D02*
X0030550Y0050500D01*
X0025550Y0050500D01*
X0015550Y0050500D02*
X0014300Y0060500D01*
X0020550Y0060500D02*
X0024300Y0060500D01*
X0020550Y0060500D02*
X0020550Y0031415D01*
X0024487Y0027665D01*
X0016613Y0027665D02*
X0008050Y0027665D01*
X0008050Y0078000D01*
X0115550Y0078000D01*
X0115550Y0070500D01*
X0110550Y0058000D02*
X0125550Y0058000D01*
X0133050Y0050500D01*
X0130550Y0048000D01*
X0130550Y0033000D01*
X0139152Y0033000D01*
X0144487Y0027665D01*
X0148424Y0027665D01*
X0148424Y0020165D01*
X0140550Y0020165D02*
X0140550Y0024250D01*
X0136613Y0024250D01*
X0136613Y0027665D01*
X0131800Y0027665D01*
X0131800Y0029250D01*
X0121800Y0029250D01*
X0121800Y0014250D01*
X0059300Y0014250D01*
X0059300Y0023000D01*
X0069300Y0023000D02*
X0069300Y0030500D01*
X0086800Y0030500D01*
X0086800Y0029250D01*
X0100550Y0028000D02*
X0110550Y0028000D01*
X0110550Y0046750D01*
X0109300Y0046750D01*
X0105550Y0050500D01*
X0105550Y0058000D01*
X0110550Y0058000D02*
X0110550Y0053000D01*
X0093267Y0055500D02*
X0093267Y0048000D01*
X0085550Y0048000D01*
X0085550Y0040500D01*
X0080550Y0040500D01*
X0080550Y0045500D01*
X0069300Y0054250D01*
X0070550Y0063000D02*
X0070550Y0065500D01*
X0065550Y0070500D01*
D11*
X0065550Y0068100D02*
X0065550Y0072900D01*
X0055550Y0072900D02*
X0055550Y0068100D01*
X0045550Y0068100D02*
X0045550Y0072900D01*
X0035550Y0072900D02*
X0035550Y0068100D01*
X0025550Y0068100D02*
X0025550Y0072900D01*
X0015550Y0072900D02*
X0015550Y0068100D01*
X0015550Y0042900D02*
X0015550Y0038100D01*
X0025550Y0038100D02*
X0025550Y0042900D01*
X0035550Y0042900D02*
X0035550Y0038100D01*
X0045550Y0038100D02*
X0045550Y0042900D01*
X0055550Y0042900D02*
X0055550Y0038100D01*
X0065550Y0038100D02*
X0065550Y0042900D01*
X0075550Y0042900D02*
X0075550Y0038100D01*
X0085550Y0038100D02*
X0085550Y0042900D01*
X0095550Y0042900D02*
X0095550Y0038100D01*
X0105550Y0038100D02*
X0105550Y0042900D01*
X0115550Y0042900D02*
X0115550Y0038100D01*
X0125550Y0038100D02*
X0125550Y0042900D01*
X0135550Y0042900D02*
X0135550Y0038100D01*
X0145550Y0038100D02*
X0145550Y0042900D01*
X0145550Y0068100D02*
X0145550Y0072900D01*
X0135550Y0072900D02*
X0135550Y0068100D01*
X0125550Y0068100D02*
X0125550Y0072900D01*
X0115550Y0072900D02*
X0115550Y0068100D01*
X0105550Y0068100D02*
X0105550Y0072900D01*
X0095550Y0072900D02*
X0095550Y0068100D01*
X0085550Y0068100D02*
X0085550Y0072900D01*
X0075550Y0072900D02*
X0075550Y0068100D01*
D12*
X0105550Y0058000D03*
X0125550Y0058000D03*
X0133050Y0050500D03*
X0153050Y0050500D03*
X0025550Y0050500D03*
X0015550Y0050500D03*
X0014300Y0060500D03*
X0024300Y0060500D03*
D13*
X0095550Y0023000D03*
X0115550Y0023000D03*
D14*
X0093267Y0055500D03*
X0087361Y0055500D03*
X0081456Y0055500D03*
X0075550Y0055500D03*
D15*
X0063798Y0059959D03*
X0055924Y0059959D03*
X0048050Y0059959D03*
X0040176Y0059959D03*
X0032302Y0059959D03*
X0024487Y0027665D03*
X0016613Y0027665D03*
X0014113Y0019585D03*
X0021987Y0019585D03*
X0041613Y0027665D03*
X0049487Y0027665D03*
X0132676Y0020165D03*
X0140550Y0020165D03*
X0148424Y0020165D03*
X0144487Y0027665D03*
X0136613Y0027665D03*
D16*
X0079300Y0026000D02*
X0079300Y0020000D01*
X0069300Y0020000D02*
X0069300Y0026000D01*
X0059300Y0026000D02*
X0059300Y0020000D01*
D17*
X0034300Y0026750D03*
X0030550Y0033000D03*
X0055550Y0049250D03*
X0064300Y0049250D03*
X0069300Y0054250D03*
X0085550Y0061750D03*
X0110550Y0053000D03*
X0086800Y0029250D03*
X0100550Y0028000D03*
M02*
