%
M48
M72
T01C0.02756
T02C0.03200
T03C0.04000
T04C0.13000
%
T01
X24556Y71835
X32430Y71835
X34930Y79915
X40993Y85250
X44743Y79000
X52056Y79915
X59930Y79915
X65993Y101500
X74743Y101500
X79743Y106500
X85993Y107750
X91898Y107750
X97804Y107750
X103709Y107750
X95993Y114000
X74241Y112209
X66367Y112209
X58493Y112209
X50619Y112209
X42745Y112209
X27056Y79915
X105993Y75250
X110993Y80250
X125993Y75250
X143119Y72415
X150993Y72415
X158867Y72415
X154930Y79915
X147056Y79915
X120993Y105250
T02
X115993Y110250
X115993Y122750
X125993Y122750
X135993Y122750
X145993Y122750
X155993Y122750
X135993Y110250
X143493Y102750
X145993Y92750
X155993Y92750
X163493Y102750
X135993Y92750
X125993Y92750
X115993Y92750
X105993Y92750
X95993Y92750
X85993Y92750
X75993Y92750
X65993Y92750
X55993Y92750
X45993Y92750
X35993Y92750
X25993Y92750
X25993Y102750
X35993Y102750
X35993Y112750
X25993Y112750
X25993Y122750
X35993Y122750
X45993Y122750
X55993Y122750
X65993Y122750
X75993Y122750
X85993Y122750
X95993Y122750
X105993Y122750
T03
X90993Y76500
X80993Y76500
X70993Y76500
T04
X80993Y17500
M30
