%
M48
M72
T01C0.02756
T02C0.03200
T03C0.04000
%
T01
X14113Y19585
X21987Y19585
X34300Y26750
X41613Y27665
X49487Y27665
X30550Y33000
X24487Y27665
X16613Y27665
X55550Y49250
X64300Y49250
X69300Y54250
X75550Y55500
X81456Y55500
X87361Y55500
X93267Y55500
X85550Y61750
X63798Y59959
X55924Y59959
X48050Y59959
X40176Y59959
X32302Y59959
X86800Y29250
X95550Y23000
X100550Y28000
X115550Y23000
X132676Y20165
X140550Y20165
X148424Y20165
X144487Y27665
X136613Y27665
X110550Y53000
T02
X105550Y58000
X125550Y58000
X133050Y50500
X135550Y40500
X125550Y40500
X115550Y40500
X105550Y40500
X95550Y40500
X85550Y40500
X75550Y40500
X65550Y40500
X55550Y40500
X45550Y40500
X35550Y40500
X25550Y40500
X15550Y40500
X15550Y50500
X25550Y50500
X24300Y60500
X14300Y60500
X15550Y70500
X25550Y70500
X35550Y70500
X45550Y70500
X55550Y70500
X65550Y70500
X75550Y70500
X85550Y70500
X95550Y70500
X105550Y70500
X115550Y70500
X125550Y70500
X135550Y70500
X145550Y70500
X153050Y50500
X145550Y40500
T03
X79300Y23000
X69300Y23000
X59300Y23000
M30
