G75*
%MOIN*%
%OFA0B0*%
%FSLAX25Y25*%
%IPPOS*%
%LPD*%
%AMOC8*
5,1,8,0,0,1.08239X$1,22.5*
%
%ADD10C,0.01600*%
%ADD11C,0.05200*%
%ADD12OC8,0.05200*%
%ADD13C,0.06500*%
%ADD14C,0.06000*%
%ADD15C,0.00000*%
%ADD16C,0.04756*%
%ADD17C,0.06299*%
%ADD18R,0.04356X0.04356*%
D10*
X0012243Y0061500D02*
X0012243Y0136500D01*
X0170993Y0136500D01*
X0170993Y0061500D01*
X0012243Y0061500D01*
X0018493Y0079915D02*
X0018493Y0130250D01*
X0125993Y0130250D01*
X0125993Y0122750D01*
X0115993Y0122750D02*
X0110993Y0122750D01*
X0110993Y0085250D01*
X0050993Y0085250D01*
X0050993Y0079915D01*
X0052056Y0079915D01*
X0045993Y0081500D02*
X0045993Y0092750D01*
X0045993Y0102750D01*
X0058493Y0102750D01*
X0058493Y0112209D01*
X0066367Y0112209D02*
X0066367Y0103124D01*
X0065993Y0101500D01*
X0074743Y0101500D02*
X0074743Y0112209D01*
X0074241Y0112209D01*
X0080993Y0115250D02*
X0080993Y0117750D01*
X0075993Y0122750D01*
X0080993Y0115250D02*
X0089743Y0115250D01*
X0089743Y0111156D01*
X0091898Y0107750D01*
X0095993Y0114000D02*
X0105993Y0122750D01*
X0115993Y0110250D02*
X0115993Y0102750D01*
X0119743Y0099000D01*
X0120993Y0099000D01*
X0120993Y0080250D01*
X0110993Y0080250D01*
X0095993Y0092750D02*
X0090993Y0092750D01*
X0090993Y0097750D01*
X0079743Y0106500D01*
X0095993Y0100250D02*
X0103709Y0100250D01*
X0103709Y0107750D01*
X0095993Y0100250D02*
X0095993Y0092750D01*
X0070993Y0076500D02*
X0070993Y0067750D01*
X0132243Y0067750D01*
X0132243Y0081500D01*
X0142243Y0081500D01*
X0142243Y0079915D01*
X0147056Y0079915D01*
X0147056Y0076500D01*
X0150993Y0076500D01*
X0150993Y0072415D01*
X0158867Y0072415D02*
X0158867Y0079915D01*
X0154930Y0079915D01*
X0149595Y0085250D01*
X0140993Y0085250D01*
X0140993Y0100250D01*
X0143493Y0102750D01*
X0135993Y0110250D01*
X0120993Y0110250D01*
X0120993Y0105250D01*
X0045993Y0081500D02*
X0044743Y0081500D01*
X0044743Y0079000D01*
X0040993Y0085250D02*
X0040993Y0102750D01*
X0035993Y0102750D01*
X0025993Y0102750D02*
X0024743Y0112750D01*
X0030993Y0112750D02*
X0034743Y0112750D01*
X0030993Y0112750D02*
X0030993Y0083665D01*
X0034930Y0079915D01*
X0027056Y0079915D02*
X0018493Y0079915D01*
D11*
X0025993Y0090150D02*
X0025993Y0095350D01*
X0035993Y0095350D02*
X0035993Y0090150D01*
X0045993Y0090150D02*
X0045993Y0095350D01*
X0055993Y0095350D02*
X0055993Y0090150D01*
X0065993Y0090150D02*
X0065993Y0095350D01*
X0075993Y0095350D02*
X0075993Y0090150D01*
X0085993Y0090150D02*
X0085993Y0095350D01*
X0095993Y0095350D02*
X0095993Y0090150D01*
X0105993Y0090150D02*
X0105993Y0095350D01*
X0115993Y0095350D02*
X0115993Y0090150D01*
X0125993Y0090150D02*
X0125993Y0095350D01*
X0135993Y0095350D02*
X0135993Y0090150D01*
X0145993Y0090150D02*
X0145993Y0095350D01*
X0155993Y0095350D02*
X0155993Y0090150D01*
X0155993Y0120150D02*
X0155993Y0125350D01*
X0145993Y0125350D02*
X0145993Y0120150D01*
X0135993Y0120150D02*
X0135993Y0125350D01*
X0125993Y0125350D02*
X0125993Y0120150D01*
X0115993Y0120150D02*
X0115993Y0125350D01*
X0105993Y0125350D02*
X0105993Y0120150D01*
X0095993Y0120150D02*
X0095993Y0125350D01*
X0085993Y0125350D02*
X0085993Y0120150D01*
X0075993Y0120150D02*
X0075993Y0125350D01*
X0065993Y0125350D02*
X0065993Y0120150D01*
X0055993Y0120150D02*
X0055993Y0125350D01*
X0045993Y0125350D02*
X0045993Y0120150D01*
X0035993Y0120150D02*
X0035993Y0125350D01*
X0025993Y0125350D02*
X0025993Y0120150D01*
D12*
X0024743Y0112750D03*
X0034743Y0112750D03*
X0035993Y0102750D03*
X0025993Y0102750D03*
X0115993Y0110250D03*
X0135993Y0110250D03*
X0143493Y0102750D03*
X0163493Y0102750D03*
D13*
X0125993Y0075250D03*
X0105993Y0075250D03*
D14*
X0090993Y0073500D02*
X0090993Y0079500D01*
X0080993Y0079500D02*
X0080993Y0073500D01*
X0070993Y0073500D02*
X0070993Y0079500D01*
D15*
X0074493Y0017500D02*
X0074495Y0017661D01*
X0074501Y0017821D01*
X0074511Y0017982D01*
X0074525Y0018142D01*
X0074543Y0018302D01*
X0074564Y0018461D01*
X0074590Y0018620D01*
X0074620Y0018778D01*
X0074653Y0018935D01*
X0074691Y0019092D01*
X0074732Y0019247D01*
X0074777Y0019401D01*
X0074826Y0019554D01*
X0074879Y0019706D01*
X0074935Y0019857D01*
X0074996Y0020006D01*
X0075059Y0020154D01*
X0075127Y0020300D01*
X0075198Y0020444D01*
X0075272Y0020586D01*
X0075350Y0020727D01*
X0075432Y0020865D01*
X0075517Y0021002D01*
X0075605Y0021136D01*
X0075697Y0021268D01*
X0075792Y0021398D01*
X0075890Y0021526D01*
X0075991Y0021651D01*
X0076095Y0021773D01*
X0076202Y0021893D01*
X0076312Y0022010D01*
X0076425Y0022125D01*
X0076541Y0022236D01*
X0076660Y0022345D01*
X0076781Y0022450D01*
X0076905Y0022553D01*
X0077031Y0022653D01*
X0077159Y0022749D01*
X0077290Y0022842D01*
X0077424Y0022932D01*
X0077559Y0023019D01*
X0077697Y0023102D01*
X0077836Y0023182D01*
X0077978Y0023258D01*
X0078121Y0023331D01*
X0078266Y0023400D01*
X0078413Y0023466D01*
X0078561Y0023528D01*
X0078711Y0023586D01*
X0078862Y0023641D01*
X0079015Y0023692D01*
X0079169Y0023739D01*
X0079324Y0023782D01*
X0079480Y0023821D01*
X0079636Y0023857D01*
X0079794Y0023888D01*
X0079952Y0023916D01*
X0080111Y0023940D01*
X0080271Y0023960D01*
X0080431Y0023976D01*
X0080591Y0023988D01*
X0080752Y0023996D01*
X0080913Y0024000D01*
X0081073Y0024000D01*
X0081234Y0023996D01*
X0081395Y0023988D01*
X0081555Y0023976D01*
X0081715Y0023960D01*
X0081875Y0023940D01*
X0082034Y0023916D01*
X0082192Y0023888D01*
X0082350Y0023857D01*
X0082506Y0023821D01*
X0082662Y0023782D01*
X0082817Y0023739D01*
X0082971Y0023692D01*
X0083124Y0023641D01*
X0083275Y0023586D01*
X0083425Y0023528D01*
X0083573Y0023466D01*
X0083720Y0023400D01*
X0083865Y0023331D01*
X0084008Y0023258D01*
X0084150Y0023182D01*
X0084289Y0023102D01*
X0084427Y0023019D01*
X0084562Y0022932D01*
X0084696Y0022842D01*
X0084827Y0022749D01*
X0084955Y0022653D01*
X0085081Y0022553D01*
X0085205Y0022450D01*
X0085326Y0022345D01*
X0085445Y0022236D01*
X0085561Y0022125D01*
X0085674Y0022010D01*
X0085784Y0021893D01*
X0085891Y0021773D01*
X0085995Y0021651D01*
X0086096Y0021526D01*
X0086194Y0021398D01*
X0086289Y0021268D01*
X0086381Y0021136D01*
X0086469Y0021002D01*
X0086554Y0020865D01*
X0086636Y0020727D01*
X0086714Y0020586D01*
X0086788Y0020444D01*
X0086859Y0020300D01*
X0086927Y0020154D01*
X0086990Y0020006D01*
X0087051Y0019857D01*
X0087107Y0019706D01*
X0087160Y0019554D01*
X0087209Y0019401D01*
X0087254Y0019247D01*
X0087295Y0019092D01*
X0087333Y0018935D01*
X0087366Y0018778D01*
X0087396Y0018620D01*
X0087422Y0018461D01*
X0087443Y0018302D01*
X0087461Y0018142D01*
X0087475Y0017982D01*
X0087485Y0017821D01*
X0087491Y0017661D01*
X0087493Y0017500D01*
X0087491Y0017339D01*
X0087485Y0017179D01*
X0087475Y0017018D01*
X0087461Y0016858D01*
X0087443Y0016698D01*
X0087422Y0016539D01*
X0087396Y0016380D01*
X0087366Y0016222D01*
X0087333Y0016065D01*
X0087295Y0015908D01*
X0087254Y0015753D01*
X0087209Y0015599D01*
X0087160Y0015446D01*
X0087107Y0015294D01*
X0087051Y0015143D01*
X0086990Y0014994D01*
X0086927Y0014846D01*
X0086859Y0014700D01*
X0086788Y0014556D01*
X0086714Y0014414D01*
X0086636Y0014273D01*
X0086554Y0014135D01*
X0086469Y0013998D01*
X0086381Y0013864D01*
X0086289Y0013732D01*
X0086194Y0013602D01*
X0086096Y0013474D01*
X0085995Y0013349D01*
X0085891Y0013227D01*
X0085784Y0013107D01*
X0085674Y0012990D01*
X0085561Y0012875D01*
X0085445Y0012764D01*
X0085326Y0012655D01*
X0085205Y0012550D01*
X0085081Y0012447D01*
X0084955Y0012347D01*
X0084827Y0012251D01*
X0084696Y0012158D01*
X0084562Y0012068D01*
X0084427Y0011981D01*
X0084289Y0011898D01*
X0084150Y0011818D01*
X0084008Y0011742D01*
X0083865Y0011669D01*
X0083720Y0011600D01*
X0083573Y0011534D01*
X0083425Y0011472D01*
X0083275Y0011414D01*
X0083124Y0011359D01*
X0082971Y0011308D01*
X0082817Y0011261D01*
X0082662Y0011218D01*
X0082506Y0011179D01*
X0082350Y0011143D01*
X0082192Y0011112D01*
X0082034Y0011084D01*
X0081875Y0011060D01*
X0081715Y0011040D01*
X0081555Y0011024D01*
X0081395Y0011012D01*
X0081234Y0011004D01*
X0081073Y0011000D01*
X0080913Y0011000D01*
X0080752Y0011004D01*
X0080591Y0011012D01*
X0080431Y0011024D01*
X0080271Y0011040D01*
X0080111Y0011060D01*
X0079952Y0011084D01*
X0079794Y0011112D01*
X0079636Y0011143D01*
X0079480Y0011179D01*
X0079324Y0011218D01*
X0079169Y0011261D01*
X0079015Y0011308D01*
X0078862Y0011359D01*
X0078711Y0011414D01*
X0078561Y0011472D01*
X0078413Y0011534D01*
X0078266Y0011600D01*
X0078121Y0011669D01*
X0077978Y0011742D01*
X0077836Y0011818D01*
X0077697Y0011898D01*
X0077559Y0011981D01*
X0077424Y0012068D01*
X0077290Y0012158D01*
X0077159Y0012251D01*
X0077031Y0012347D01*
X0076905Y0012447D01*
X0076781Y0012550D01*
X0076660Y0012655D01*
X0076541Y0012764D01*
X0076425Y0012875D01*
X0076312Y0012990D01*
X0076202Y0013107D01*
X0076095Y0013227D01*
X0075991Y0013349D01*
X0075890Y0013474D01*
X0075792Y0013602D01*
X0075697Y0013732D01*
X0075605Y0013864D01*
X0075517Y0013998D01*
X0075432Y0014135D01*
X0075350Y0014273D01*
X0075272Y0014414D01*
X0075198Y0014556D01*
X0075127Y0014700D01*
X0075059Y0014846D01*
X0074996Y0014994D01*
X0074935Y0015143D01*
X0074879Y0015294D01*
X0074826Y0015446D01*
X0074777Y0015599D01*
X0074732Y0015753D01*
X0074691Y0015908D01*
X0074653Y0016065D01*
X0074620Y0016222D01*
X0074590Y0016380D01*
X0074564Y0016539D01*
X0074543Y0016698D01*
X0074525Y0016858D01*
X0074511Y0017018D01*
X0074501Y0017179D01*
X0074495Y0017339D01*
X0074493Y0017500D01*
D16*
X0085993Y0107750D03*
X0091898Y0107750D03*
X0097804Y0107750D03*
X0103709Y0107750D03*
D17*
X0074241Y0112209D03*
X0066367Y0112209D03*
X0058493Y0112209D03*
X0050619Y0112209D03*
X0042745Y0112209D03*
X0034930Y0079915D03*
X0027056Y0079915D03*
X0024556Y0071835D03*
X0032430Y0071835D03*
X0052056Y0079915D03*
X0059930Y0079915D03*
X0143119Y0072415D03*
X0150993Y0072415D03*
X0158867Y0072415D03*
X0154930Y0079915D03*
X0147056Y0079915D03*
D18*
X0120993Y0105250D03*
X0095993Y0114000D03*
X0079743Y0106500D03*
X0074743Y0101500D03*
X0065993Y0101500D03*
X0040993Y0085250D03*
X0044743Y0079000D03*
X0110993Y0080250D03*
M02*
