G75*
%MOIN*%
%OFA0B0*%
%FSLAX25Y25*%
%IPPOS*%
%LPD*%
%AMOC8*
5,1,8,0,0,1.08239X$1,22.5*
%
%ADD10C,0.05200*%
%ADD11OC8,0.05200*%
%ADD12C,0.06500*%
%ADD13C,0.06000*%
%ADD14C,0.04756*%
%ADD15C,0.06299*%
%ADD16C,0.01600*%
%ADD17R,0.04356X0.04356*%
D10*
X0025993Y0090150D02*
X0025993Y0095350D01*
X0035993Y0095350D02*
X0035993Y0090150D01*
X0045993Y0090150D02*
X0045993Y0095350D01*
X0055993Y0095350D02*
X0055993Y0090150D01*
X0065993Y0090150D02*
X0065993Y0095350D01*
X0075993Y0095350D02*
X0075993Y0090150D01*
X0085993Y0090150D02*
X0085993Y0095350D01*
X0095993Y0095350D02*
X0095993Y0090150D01*
X0105993Y0090150D02*
X0105993Y0095350D01*
X0115993Y0095350D02*
X0115993Y0090150D01*
X0125993Y0090150D02*
X0125993Y0095350D01*
X0135993Y0095350D02*
X0135993Y0090150D01*
X0145993Y0090150D02*
X0145993Y0095350D01*
X0155993Y0095350D02*
X0155993Y0090150D01*
X0155993Y0120150D02*
X0155993Y0125350D01*
X0145993Y0125350D02*
X0145993Y0120150D01*
X0135993Y0120150D02*
X0135993Y0125350D01*
X0125993Y0125350D02*
X0125993Y0120150D01*
X0115993Y0120150D02*
X0115993Y0125350D01*
X0105993Y0125350D02*
X0105993Y0120150D01*
X0095993Y0120150D02*
X0095993Y0125350D01*
X0085993Y0125350D02*
X0085993Y0120150D01*
X0075993Y0120150D02*
X0075993Y0125350D01*
X0065993Y0125350D02*
X0065993Y0120150D01*
X0055993Y0120150D02*
X0055993Y0125350D01*
X0045993Y0125350D02*
X0045993Y0120150D01*
X0035993Y0120150D02*
X0035993Y0125350D01*
X0025993Y0125350D02*
X0025993Y0120150D01*
D11*
X0025993Y0112750D03*
X0035993Y0112750D03*
X0035993Y0102750D03*
X0025993Y0102750D03*
X0115993Y0110250D03*
X0135993Y0110250D03*
X0143493Y0102750D03*
X0163493Y0102750D03*
D12*
X0125993Y0075250D03*
X0105993Y0075250D03*
D13*
X0090993Y0073500D02*
X0090993Y0079500D01*
X0080993Y0079500D02*
X0080993Y0073500D01*
X0070993Y0073500D02*
X0070993Y0079500D01*
D14*
X0085993Y0107750D03*
X0091898Y0107750D03*
X0097804Y0107750D03*
X0103709Y0107750D03*
D15*
X0074241Y0112209D03*
X0066367Y0112209D03*
X0058493Y0112209D03*
X0050619Y0112209D03*
X0042745Y0112209D03*
X0034930Y0079915D03*
X0027056Y0079915D03*
X0024556Y0071835D03*
X0032430Y0071835D03*
X0052056Y0079915D03*
X0059930Y0079915D03*
X0143119Y0072415D03*
X0150993Y0072415D03*
X0158867Y0072415D03*
X0154930Y0079915D03*
X0147056Y0079915D03*
D16*
X0075993Y0085250D02*
X0075993Y0067750D01*
X0143119Y0067750D01*
X0143119Y0072415D01*
X0125993Y0075250D02*
X0125993Y0085250D01*
X0163493Y0085250D01*
X0163493Y0102750D01*
X0150993Y0092750D02*
X0145993Y0092750D01*
X0150993Y0092750D02*
X0150993Y0130250D01*
X0040993Y0130250D01*
X0040993Y0112711D01*
X0042745Y0112209D01*
X0047243Y0108833D02*
X0050619Y0112209D01*
X0050993Y0112209D01*
X0050993Y0106500D01*
X0079743Y0106500D01*
X0085993Y0107750D02*
X0085993Y0114000D01*
X0095993Y0114000D01*
X0099054Y0109561D02*
X0104743Y0115250D01*
X0138493Y0115250D01*
X0145993Y0122750D01*
X0120993Y0105250D02*
X0105993Y0105250D01*
X0103709Y0107533D01*
X0103709Y0107750D01*
X0099054Y0109561D02*
X0097804Y0107750D01*
X0085993Y0107750D02*
X0085993Y0092750D01*
X0080993Y0092750D01*
X0080993Y0076500D01*
X0090993Y0076500D02*
X0090993Y0089000D01*
X0095993Y0089000D01*
X0095993Y0092750D01*
X0100993Y0092750D02*
X0105993Y0092750D01*
X0105993Y0086500D01*
X0110993Y0080250D01*
X0115993Y0075250D02*
X0115993Y0092750D01*
X0100993Y0092750D02*
X0100993Y0075250D01*
X0105993Y0075250D01*
X0115993Y0075250D02*
X0125993Y0075250D01*
X0075993Y0085250D02*
X0070993Y0085250D01*
X0070993Y0101500D01*
X0074743Y0101500D01*
X0065993Y0101500D02*
X0043493Y0101500D01*
X0035993Y0092750D01*
X0035993Y0085250D01*
X0018493Y0085250D01*
X0018493Y0071500D01*
X0024556Y0071500D01*
X0024556Y0071835D01*
X0032430Y0071835D02*
X0032430Y0071500D01*
X0038493Y0071500D01*
X0038493Y0075250D01*
X0042243Y0075250D01*
X0042243Y0079000D01*
X0044743Y0079000D01*
X0040993Y0085250D02*
X0059930Y0085250D01*
X0059930Y0079915D01*
X0047243Y0106500D02*
X0039743Y0106500D01*
X0038493Y0107750D01*
X0025993Y0107750D01*
X0025993Y0112750D01*
X0047243Y0108833D02*
X0047243Y0106500D01*
D17*
X0065993Y0101500D03*
X0074743Y0101500D03*
X0079743Y0106500D03*
X0095993Y0114000D03*
X0120993Y0105250D03*
X0110993Y0080250D03*
X0044743Y0079000D03*
X0040993Y0085250D03*
M02*
