%
M48
M72
T01C0.02756
T02C0.03200
T03C0.04000
%
T01
X39500Y50000
T02
X32000Y50000
X47000Y50000
X47000Y65000
X32000Y65000
X12000Y65000
X12000Y50000
X67000Y50000
X67000Y65000
T03
X12000Y15000
X22000Y15000
X32000Y15000
X47000Y15000
X57000Y15000
X67000Y15000
X67000Y35000
X52000Y35000
X37000Y35000
X27000Y35000
X12000Y35000
M30
